<mxfile host="app.diagrams.net" agent="Mozilla/5.0 (Windows NT 10.0; Win64; x64; rv:144.0) Gecko/20100101 Firefox/144.0" version="28.2.7">
  <diagram id="C5RBs43oDa-KdzZeNtuy" name="Page-1">
    <mxGraphModel dx="786" dy="467" grid="1" gridSize="10" guides="1" tooltips="1" connect="1" arrows="1" fold="1" page="1" pageScale="1" pageWidth="827" pageHeight="1169" math="0" shadow="0">
      <root>
        <mxCell id="WIyWlLk6GJQsqaUBKTNV-0" />
        <mxCell id="WIyWlLk6GJQsqaUBKTNV-1" parent="WIyWlLk6GJQsqaUBKTNV-0" />
        <mxCell id="vKy-xGcYeQm--zWy1Und-14" style="edgeStyle=orthogonalEdgeStyle;rounded=0;orthogonalLoop=1;jettySize=auto;html=1;entryX=0.5;entryY=0;entryDx=0;entryDy=0;exitX=0;exitY=0.5;exitDx=0;exitDy=0;" parent="WIyWlLk6GJQsqaUBKTNV-1" source="vKy-xGcYeQm--zWy1Und-28" target="vKy-xGcYeQm--zWy1Und-29" edge="1">
          <mxGeometry relative="1" as="geometry">
            <mxPoint x="384" y="78" as="sourcePoint" />
            <mxPoint x="245" y="110" as="targetPoint" />
          </mxGeometry>
        </mxCell>
        <mxCell id="vKy-xGcYeQm--zWy1Und-15" style="edgeStyle=orthogonalEdgeStyle;rounded=0;orthogonalLoop=1;jettySize=auto;html=1;entryX=0.5;entryY=0;entryDx=0;entryDy=0;exitX=0.5;exitY=1;exitDx=0;exitDy=0;" parent="WIyWlLk6GJQsqaUBKTNV-1" source="vKy-xGcYeQm--zWy1Und-28" target="vKy-xGcYeQm--zWy1Und-18" edge="1">
          <mxGeometry relative="1" as="geometry">
            <mxPoint x="432" y="126" as="sourcePoint" />
          </mxGeometry>
        </mxCell>
        <mxCell id="vKy-xGcYeQm--zWy1Und-17" style="edgeStyle=orthogonalEdgeStyle;rounded=0;orthogonalLoop=1;jettySize=auto;html=1;entryX=0;entryY=0.5;entryDx=0;entryDy=0;" parent="WIyWlLk6GJQsqaUBKTNV-1" source="vKy-xGcYeQm--zWy1Und-18" target="vKy-xGcYeQm--zWy1Und-37" edge="1">
          <mxGeometry relative="1" as="geometry">
            <mxPoint x="600" y="300" as="targetPoint" />
          </mxGeometry>
        </mxCell>
        <mxCell id="vKy-xGcYeQm--zWy1Und-18" value="Testing GPIOs to discover hidden UART and trigger" style="whiteSpace=wrap;html=1;aspect=fixed;" parent="WIyWlLk6GJQsqaUBKTNV-1" vertex="1">
          <mxGeometry x="384" y="260" width="80" height="80" as="geometry" />
        </mxCell>
        <mxCell id="vKy-xGcYeQm--zWy1Und-19" style="edgeStyle=orthogonalEdgeStyle;rounded=0;orthogonalLoop=1;jettySize=auto;html=1;exitX=1;exitY=0.5;exitDx=0;exitDy=0;" parent="WIyWlLk6GJQsqaUBKTNV-1" source="vKy-xGcYeQm--zWy1Und-32" edge="1">
          <mxGeometry relative="1" as="geometry">
            <mxPoint x="380" y="300" as="targetPoint" />
            <Array as="points" />
            <mxPoint x="285" y="300" as="sourcePoint" />
          </mxGeometry>
        </mxCell>
        <mxCell id="vKy-xGcYeQm--zWy1Und-21" style="edgeStyle=orthogonalEdgeStyle;rounded=0;orthogonalLoop=1;jettySize=auto;html=1;exitX=0.5;exitY=1;exitDx=0;exitDy=0;entryX=0.5;entryY=0;entryDx=0;entryDy=0;" parent="WIyWlLk6GJQsqaUBKTNV-1" source="vKy-xGcYeQm--zWy1Und-37" edge="1" target="vKy-xGcYeQm--zWy1Und-35">
          <mxGeometry relative="1" as="geometry">
            <mxPoint x="290" y="310" as="sourcePoint" />
            <mxPoint x="380" y="450" as="targetPoint" />
            <Array as="points">
              <mxPoint x="560" y="380" />
              <mxPoint x="380" y="380" />
            </Array>
          </mxGeometry>
        </mxCell>
        <mxCell id="vKy-xGcYeQm--zWy1Und-24" style="edgeStyle=orthogonalEdgeStyle;rounded=0;orthogonalLoop=1;jettySize=auto;html=1;entryX=0.5;entryY=0;entryDx=0;entryDy=0;exitX=0.5;exitY=1;exitDx=0;exitDy=0;" parent="WIyWlLk6GJQsqaUBKTNV-1" source="vKy-xGcYeQm--zWy1Und-29" target="vKy-xGcYeQm--zWy1Und-32" edge="1">
          <mxGeometry relative="1" as="geometry">
            <mxPoint x="245" y="180" as="sourcePoint" />
            <mxPoint x="240" y="240" as="targetPoint" />
          </mxGeometry>
        </mxCell>
        <mxCell id="vKy-xGcYeQm--zWy1Und-28" value="PHYSICAL ACCESS" style="rounded=0;whiteSpace=wrap;html=1;" parent="WIyWlLk6GJQsqaUBKTNV-1" vertex="1">
          <mxGeometry x="364" y="10" width="120" height="60" as="geometry" />
        </mxCell>
        <mxCell id="vKy-xGcYeQm--zWy1Und-29" value="Common USB Serial&amp;nbsp; connection port" style="rounded=0;whiteSpace=wrap;html=1;" parent="WIyWlLk6GJQsqaUBKTNV-1" vertex="1">
          <mxGeometry x="170" y="100" width="120" height="60" as="geometry" />
        </mxCell>
        <mxCell id="vKy-xGcYeQm--zWy1Und-32" value="Error message : Wrong communication protocol" style="rounded=0;whiteSpace=wrap;html=1;" parent="WIyWlLk6GJQsqaUBKTNV-1" vertex="1">
          <mxGeometry x="150" y="270" width="120" height="60" as="geometry" />
        </mxCell>
        <mxCell id="vKy-xGcYeQm--zWy1Und-34" value="IDENTIFICATION" style="rounded=0;whiteSpace=wrap;html=1;fillColor=#ffe6cc;strokeColor=#d79b00;" parent="WIyWlLk6GJQsqaUBKTNV-1" vertex="1">
          <mxGeometry x="40" y="50" width="120" height="60" as="geometry" />
        </mxCell>
        <mxCell id="kZTtD5J5sdqrCijHKZE3-14" value="" style="edgeStyle=orthogonalEdgeStyle;rounded=0;orthogonalLoop=1;jettySize=auto;html=1;" edge="1" parent="WIyWlLk6GJQsqaUBKTNV-1" source="vKy-xGcYeQm--zWy1Und-35" target="kZTtD5J5sdqrCijHKZE3-13">
          <mxGeometry relative="1" as="geometry" />
        </mxCell>
        <mxCell id="vKy-xGcYeQm--zWy1Und-35" value="Power analysis Side-channel Attack" style="rounded=0;whiteSpace=wrap;html=1;" parent="WIyWlLk6GJQsqaUBKTNV-1" vertex="1">
          <mxGeometry x="320" y="440" width="120" height="60" as="geometry" />
        </mxCell>
        <mxCell id="vKy-xGcYeQm--zWy1Und-37" value="Entry point of hidden channel confirmed by password request" style="rounded=0;whiteSpace=wrap;html=1;dashed=1;" parent="WIyWlLk6GJQsqaUBKTNV-1" vertex="1">
          <mxGeometry x="490" y="270" width="140" height="60" as="geometry" />
        </mxCell>
        <mxCell id="vKy-xGcYeQm--zWy1Und-38" value="EXPLOITATION" style="rounded=0;whiteSpace=wrap;html=1;fillColor=#d5e8d4;strokeColor=#82b366;" parent="WIyWlLk6GJQsqaUBKTNV-1" vertex="1">
          <mxGeometry x="680" y="20" width="120" height="60" as="geometry" />
        </mxCell>
        <mxCell id="vKy-xGcYeQm--zWy1Und-39" value="GOALS" style="rounded=0;whiteSpace=wrap;html=1;fillColor=#f8cecc;strokeColor=#b85450;" parent="WIyWlLk6GJQsqaUBKTNV-1" vertex="1">
          <mxGeometry x="400" y="690" width="120" height="60" as="geometry" />
        </mxCell>
        <mxCell id="vKy-xGcYeQm--zWy1Und-40" value="Secret of the vault of Arduino Uno" style="rounded=0;whiteSpace=wrap;html=1;dashed=1;" parent="WIyWlLk6GJQsqaUBKTNV-1" vertex="1">
          <mxGeometry x="710" y="770" width="120" height="60" as="geometry" />
        </mxCell>
        <mxCell id="kZTtD5J5sdqrCijHKZE3-2" style="edgeStyle=orthogonalEdgeStyle;rounded=0;orthogonalLoop=1;jettySize=auto;html=1;exitX=0.5;exitY=1;exitDx=0;exitDy=0;entryX=0.5;entryY=0;entryDx=0;entryDy=0;" edge="1" parent="WIyWlLk6GJQsqaUBKTNV-1" source="kZTtD5J5sdqrCijHKZE3-0" target="kZTtD5J5sdqrCijHKZE3-1">
          <mxGeometry relative="1" as="geometry" />
        </mxCell>
        <mxCell id="kZTtD5J5sdqrCijHKZE3-0" value="LOCAL ACCESS" style="rounded=0;whiteSpace=wrap;html=1;" vertex="1" parent="WIyWlLk6GJQsqaUBKTNV-1">
          <mxGeometry x="490" y="10" width="120" height="60" as="geometry" />
        </mxCell>
        <mxCell id="kZTtD5J5sdqrCijHKZE3-5" value="" style="edgeStyle=orthogonalEdgeStyle;rounded=0;orthogonalLoop=1;jettySize=auto;html=1;" edge="1" parent="WIyWlLk6GJQsqaUBKTNV-1" source="kZTtD5J5sdqrCijHKZE3-1" target="kZTtD5J5sdqrCijHKZE3-4">
          <mxGeometry relative="1" as="geometry" />
        </mxCell>
        <mxCell id="kZTtD5J5sdqrCijHKZE3-1" value="Firmware .hex file" style="rounded=0;whiteSpace=wrap;html=1;dashed=1;" vertex="1" parent="WIyWlLk6GJQsqaUBKTNV-1">
          <mxGeometry x="440" y="150" width="120" height="60" as="geometry" />
        </mxCell>
        <mxCell id="kZTtD5J5sdqrCijHKZE3-3" value="Salt and Hash retrieval" style="rounded=0;whiteSpace=wrap;html=1;dashed=1;" vertex="1" parent="WIyWlLk6GJQsqaUBKTNV-1">
          <mxGeometry x="570" y="770" width="120" height="60" as="geometry" />
        </mxCell>
        <mxCell id="kZTtD5J5sdqrCijHKZE3-7" value="" style="edgeStyle=orthogonalEdgeStyle;rounded=0;orthogonalLoop=1;jettySize=auto;html=1;" edge="1" parent="WIyWlLk6GJQsqaUBKTNV-1" source="kZTtD5J5sdqrCijHKZE3-4" target="kZTtD5J5sdqrCijHKZE3-6">
          <mxGeometry relative="1" as="geometry" />
        </mxCell>
        <mxCell id="kZTtD5J5sdqrCijHKZE3-4" value="Exploring sections with avr-objdump&amp;nbsp;" style="whiteSpace=wrap;html=1;rounded=0;" vertex="1" parent="WIyWlLk6GJQsqaUBKTNV-1">
          <mxGeometry x="720" y="130" width="120" height="60" as="geometry" />
        </mxCell>
        <mxCell id="kZTtD5J5sdqrCijHKZE3-9" value="" style="edgeStyle=orthogonalEdgeStyle;rounded=0;orthogonalLoop=1;jettySize=auto;html=1;" edge="1" parent="WIyWlLk6GJQsqaUBKTNV-1" source="kZTtD5J5sdqrCijHKZE3-6" target="kZTtD5J5sdqrCijHKZE3-8">
          <mxGeometry relative="1" as="geometry" />
        </mxCell>
        <mxCell id="kZTtD5J5sdqrCijHKZE3-6" value=".data section exposed" style="whiteSpace=wrap;html=1;rounded=0;dashed=1;" vertex="1" parent="WIyWlLk6GJQsqaUBKTNV-1">
          <mxGeometry x="720" y="270" width="120" height="60" as="geometry" />
        </mxCell>
        <mxCell id="kZTtD5J5sdqrCijHKZE3-8" value="Identifying Possible passwords and confidential data" style="whiteSpace=wrap;html=1;rounded=0;dashed=1;" vertex="1" parent="WIyWlLk6GJQsqaUBKTNV-1">
          <mxGeometry x="710" y="410" width="120" height="60" as="geometry" />
        </mxCell>
        <mxCell id="kZTtD5J5sdqrCijHKZE3-16" value="" style="edgeStyle=orthogonalEdgeStyle;rounded=0;orthogonalLoop=1;jettySize=auto;html=1;" edge="1" parent="WIyWlLk6GJQsqaUBKTNV-1" source="kZTtD5J5sdqrCijHKZE3-13" target="kZTtD5J5sdqrCijHKZE3-15">
          <mxGeometry relative="1" as="geometry" />
        </mxCell>
        <mxCell id="kZTtD5J5sdqrCijHKZE3-13" value="Offset in traces of correct characters" style="whiteSpace=wrap;html=1;rounded=0;" vertex="1" parent="WIyWlLk6GJQsqaUBKTNV-1">
          <mxGeometry x="520" y="440" width="120" height="60" as="geometry" />
        </mxCell>
        <mxCell id="kZTtD5J5sdqrCijHKZE3-15" value="Plaintext Password" style="whiteSpace=wrap;html=1;rounded=0;dashed=1;" vertex="1" parent="WIyWlLk6GJQsqaUBKTNV-1">
          <mxGeometry x="570" y="530" width="120" height="60" as="geometry" />
        </mxCell>
        <mxCell id="kZTtD5J5sdqrCijHKZE3-17" value="" style="edgeStyle=orthogonalEdgeStyle;rounded=0;orthogonalLoop=1;jettySize=auto;html=1;entryX=0.75;entryY=0;entryDx=0;entryDy=0;exitX=0.5;exitY=1;exitDx=0;exitDy=0;" edge="1" parent="WIyWlLk6GJQsqaUBKTNV-1" source="kZTtD5J5sdqrCijHKZE3-8" target="kZTtD5J5sdqrCijHKZE3-15">
          <mxGeometry relative="1" as="geometry">
            <mxPoint x="750" y="430" as="sourcePoint" />
            <mxPoint x="650" y="490" as="targetPoint" />
            <Array as="points">
              <mxPoint x="770" y="520" />
              <mxPoint x="660" y="520" />
            </Array>
          </mxGeometry>
        </mxCell>
        <mxCell id="kZTtD5J5sdqrCijHKZE3-19" value="Inputting password via USB-UART Connection" style="rounded=0;whiteSpace=wrap;html=1;" vertex="1" parent="WIyWlLk6GJQsqaUBKTNV-1">
          <mxGeometry x="570" y="660" width="120" height="60" as="geometry" />
        </mxCell>
        <mxCell id="kZTtD5J5sdqrCijHKZE3-20" value="" style="edgeStyle=orthogonalEdgeStyle;rounded=0;orthogonalLoop=1;jettySize=auto;html=1;exitX=0.433;exitY=0.983;exitDx=0;exitDy=0;exitPerimeter=0;entryX=0.5;entryY=0;entryDx=0;entryDy=0;" edge="1" parent="WIyWlLk6GJQsqaUBKTNV-1" source="kZTtD5J5sdqrCijHKZE3-15" target="kZTtD5J5sdqrCijHKZE3-19">
          <mxGeometry relative="1" as="geometry">
            <mxPoint x="610" y="620" as="sourcePoint" />
            <mxPoint x="680" y="650" as="targetPoint" />
          </mxGeometry>
        </mxCell>
        <mxCell id="kZTtD5J5sdqrCijHKZE3-22" value="" style="endArrow=classic;html=1;rounded=0;exitX=0.5;exitY=1;exitDx=0;exitDy=0;entryX=0.5;entryY=0;entryDx=0;entryDy=0;" edge="1" parent="WIyWlLk6GJQsqaUBKTNV-1">
          <mxGeometry width="50" height="50" relative="1" as="geometry">
            <mxPoint x="779.5" y="470" as="sourcePoint" />
            <mxPoint x="779.5" y="770" as="targetPoint" />
          </mxGeometry>
        </mxCell>
        <mxCell id="kZTtD5J5sdqrCijHKZE3-23" value="" style="endArrow=classic;html=1;rounded=0;exitX=0.5;exitY=1;exitDx=0;exitDy=0;entryX=0.5;entryY=0;entryDx=0;entryDy=0;" edge="1" parent="WIyWlLk6GJQsqaUBKTNV-1" source="kZTtD5J5sdqrCijHKZE3-19" target="kZTtD5J5sdqrCijHKZE3-3">
          <mxGeometry width="50" height="50" relative="1" as="geometry">
            <mxPoint x="600" y="720" as="sourcePoint" />
            <mxPoint x="650" y="670" as="targetPoint" />
          </mxGeometry>
        </mxCell>
      </root>
    </mxGraphModel>
  </diagram>
</mxfile>
